PathFileType	4	(X/Y/Z)	C:/Users/opensim2020/Desktop/walking_exp_matlab/subject03_walking11_straight_04.trc	
DataRate	CameraRate	NumFrames	NumMarkers	Units	OrigDataRate	OrigDataStartFrame	OrigNumFrames	
100.00	100.00	6	46	mm	100.00	3966	350	
Frame#	Time	LFHD			RFHD			LBHD			RBHD			C7			T10			CLAV			STRN			RBAK			LSHO			LUPA			LELB			LFRM			LWRA			LWRB			LFIN			RSHO			RUPA			RELB			RFRM			RWRA			RWRB			RFIN			LASI			RASI			LPSI			RPSI			LTHI			LKNE			LTIB			LANK			LHEE			LTOE			RTHI			RKNE			RTIB			RANK			RHEE			RTOE			*39			*40			*41			*42			*43			*44			*45			
		X1	Y1	Z1	X2	Y2	Z2	X3	Y3	Z3	X4	Y4	Z4	X5	Y5	Z5	X6	Y6	Z6	X7	Y7	Z7	X8	Y8	Z8	X9	Y9	Z9	X10	Y10	Z10	X11	Y11	Z11	X12	Y12	Z12	X13	Y13	Z13	X14	Y14	Z14	X15	Y15	Z15	X16	Y16	Z16	X17	Y17	Z17	X18	Y18	Z18	X19	Y19	Z19	X20	Y20	Z20	X21	Y21	Z21	X22	Y22	Z22	X23	Y23	Z23	X24	Y24	Z24	X25	Y25	Z25	X26	Y26	Z26	X27	Y27	Z27	X28	Y28	Z28	X29	Y29	Z29	X30	Y30	Z30	X31	Y31	Z31	X32	Y32	Z32	X33	Y33	Z33	X34	Y34	Z34	X35	Y35	Z35	X36	Y36	Z36	X37	Y37	Z37	X38	Y38	Z38	X39	Y39	Z39	X40	Y40	Z40	X41	Y41	Z41	X42	Y42	Z42	X43	Y43	Z43	X44	Y44	Z44	X45	Y45	Z45	X46	Y46	Z46	

219	2.180	-981.46826	-388.05685	1629.18066	-1114.03235	-377.14871	1634.50671	-977.60577	-266.91321	1569.65100	-1108.12341	-260.75226	1575.01807	-1037.27905	-245.30344	1417.06384	-1040.48389	-220.37834	1103.37549	-1042.19897	-368.81403	1343.74622	-1033.04248	-415.72269	1180.02490	-1131.59900	-194.99124	1239.04114	-885.82550	-332.58344	1380.56042	-816.58569	-345.67996	1184.22424	-806.89288	-364.65594	1062.07239	-811.45294	-407.68335	939.26917	-845.57440	-442.02087	826.20160	-793.57135	-420.62631	826.41260	-808.16504	-443.57077	744.66766	-1200.96606	-318.85648	1364.20752	-1269.95691	-315.68176	1140.27747	-1281.43652	-331.41068	1028.10815	-1279.48132	-353.83414	893.04645	-1242.05945	-390.05923	800.55212	-1284.47546	-357.15173	792.50708	-1271.91797	-382.84543	722.42651	-914.45062	-382.10355	939.95782	-1152.84375	-398.09842	943.76550	-974.67456	-224.10019	963.19934	-1123.02783	-235.36125	974.73248	-858.67798	-319.89725	636.49579	-875.02667	-323.35172	456.30154	-887.81854	-173.97278	323.74213	-938.46619	-37.00920	171.39102	-982.23413	8.12931	180.59523	-962.64862	-99.65649	35.21633	-1192.60474	-354.60336	649.77655	-1153.09192	-383.16708	471.06445	-1157.03027	-354.69351	283.80920	-1106.13098	-350.70358	67.13337	-1056.73230	-305.65994	34.45962	-1077.99219	-493.35867	32.18069	-1024.66174	-295.85278	1681.52039																		 
220	2.190	-981.71930	-393.55594	1628.99390	-1114.34607	-382.93863	1634.28040	-978.07776	-272.75998	1568.75903	-1108.71399	-266.84204	1574.17578	-1037.99976	-251.58925	1416.86023	-1041.18872	-225.95129	1103.18860	-1042.42981	-374.93573	1343.32788	-1033.15076	-421.38544	1179.38782	-1133.16113	-201.43532	1238.94641	-886.14667	-337.73517	1379.82813	-816.57654	-349.11166	1183.24121	-806.57928	-367.75681	1061.02795	-810.73914	-410.06766	938.00793	-844.49573	-444.04907	824.74963	-792.62402	-422.25879	825.15460	-806.77753	-445.06693	743.43604	-1201.53857	-326.26376	1363.64734	-1271.04028	-324.07230	1139.98206	-1282.88855	-340.29568	1027.90784	-1281.16565	-363.62640	893.00153	-1243.94568	-400.42621	800.88739	-1286.35901	-367.67447	792.59674	-1273.83704	-393.87915	722.75531	-914.77765	-386.88852	938.99475	-1153.29626	-403.92200	943.69995	-975.39453	-229.20990	962.02179	-1123.63123	-240.81291	974.50153	-857.80579	-328.49030	635.82416	-873.66711	-336.35120	455.76196	-887.07703	-186.29123	324.90280	-938.40765	-47.32582	174.76677	-982.90814	-2.40405	184.11147	-959.90723	-109.13297	37.85020	-1192.59827	-361.44751	649.74615	-1153.62354	-387.12723	470.95038	-1157.34570	-357.09064	283.69055	-1106.16235	-350.86487	67.22222	-1056.80591	-305.66495	34.54257	-1077.84387	-493.45816	32.11633	-1024.89600	-301.25967	1680.70520																		 
221	2.200	-981.91791	-399.02533	1628.81433	-1114.61401	-388.74786	1634.00793	-978.55975	-278.54346	1567.96472	-1109.32031	-272.89130	1573.32178	-1039.23108	-257.66257	1416.57983	-1041.92725	-231.37408	1103.07800	-1042.55945	-380.98880	1342.88452	-1033.22107	-426.87305	1178.70679	-1134.45825	-207.83627	1238.90210	-886.33759	-342.87851	1379.15808	-816.37476	-352.49326	1182.35474	-806.23120	-370.50528	1060.08972	-810.03448	-412.39059	936.86212	-843.34283	-446.05692	823.39880	-791.68427	-423.83478	823.99762	-805.33929	-446.71167	742.32001	-1202.00146	-333.55615	1363.23401	-1272.05945	-332.55411	1139.71899	-1284.38757	-349.25433	1027.80396	-1282.78796	-373.48175	893.00537	-1245.62500	-410.80902	801.15112	-1288.19287	-378.24762	792.67450	-1275.89893	-405.02048	723.10309	-914.87262	-392.13080	938.58813	-1153.65784	-409.88058	943.71576	-976.06262	-234.21263	960.92609	-1124.36292	-246.49214	974.19824	-858.41919	-337.32092	635.44238	-872.54749	-349.19797	455.54239	-886.65570	-198.71315	326.10098	-938.52325	-58.35012	177.65057	-983.70007	-13.42509	186.54041	-956.28528	-120.78798	40.66858	-1192.98694	-367.51791	649.04718	-1153.98157	-391.00531	470.80753	-1157.59253	-359.49631	283.59845	-1106.03748	-350.80441	67.42792	-1056.86414	-305.63528	34.62026	-1077.74084	-493.50253	32.03274	-1025.43530	-306.28119	1679.88513																		 
222	2.210	-982.10944	-404.48059	1628.64966	-1114.77075	-394.53253	1633.74927	-979.08276	-284.36993	1567.20483	-1109.72595	-278.98663	1572.49768	-1040.06323	-263.73016	1416.41907	-1042.51282	-236.82681	1102.87854	-1042.63159	-386.93262	1342.48950	-1033.19617	-432.26413	1178.13831	-1135.67603	-214.01654	1238.97070	-886.51044	-347.80927	1378.58789	-816.30792	-355.73093	1181.59497	-805.76465	-373.37814	1059.32605	-809.23419	-414.58795	935.79187	-842.21338	-448.13452	822.35547	-790.72485	-425.49005	823.02649	-803.89740	-448.47513	741.47321	-1202.38464	-340.70807	1362.88013	-1273.03088	-341.07944	1139.51318	-1285.70142	-358.46109	1027.74304	-1284.43811	-383.49402	893.11688	-1247.29358	-421.14703	801.39008	-1290.06042	-388.84134	792.81409	-1277.89355	-416.20334	723.44849	-915.06677	-396.92685	938.12646	-1153.62854	-415.30887	943.91406	-976.77271	-239.28909	959.88916	-1125.05920	-251.97809	973.91772	-858.42340	-346.01001	635.32202	-871.54333	-361.96741	455.65784	-886.41852	-211.37744	327.20663	-938.99731	-69.90241	180.03780	-984.44043	-25.16598	187.94370	-953.14008	-133.48569	43.01147	-1193.39624	-372.08035	649.71124	-1154.21887	-394.88632	470.63040	-1157.77136	-361.90326	283.52740	-1105.99646	-350.94656	67.47241	-1056.93994	-305.60556	34.71636	-1077.66638	-493.53726	31.98298	-1025.94141	-311.75372	1679.14563																		 
223	2.220	-982.19983	-410.01309	1628.51501	-1115.00879	-400.39737	1633.48389	-979.54883	-290.02533	1566.52417	-1110.23157	-285.07510	1571.74084	-1040.86194	-269.58401	1416.42847	-1043.05322	-242.20168	1102.83362	-1042.66064	-392.80194	1342.17029	-1033.16455	-437.58231	1177.61487	-1136.80786	-220.27634	1239.02905	-886.62006	-352.74246	1378.15942	-816.09161	-358.83029	1180.99768	-805.35077	-375.89133	1058.65588	-808.46057	-416.69980	934.99750	-841.07831	-450.04163	821.39856	-789.78345	-427.06668	822.21924	-802.47260	-450.31345	740.82825	-1202.65515	-347.77612	1362.43567	-1273.86670	-349.67584	1139.35938	-1286.90955	-367.78043	1027.76025	-1285.97412	-393.56705	893.27759	-1248.95251	-431.50781	801.66730	-1291.96497	-399.57254	793.04382	-1280.05432	-427.46500	724.03070	-915.30115	-401.74915	937.99518	-1153.83130	-420.90686	943.92914	-977.55530	-244.25357	959.21716	-1125.75610	-257.40930	973.65790	-858.32355	-354.75125	635.40839	-870.66846	-374.53494	456.09756	-886.20441	-224.16025	328.04984	-939.06451	-82.42721	181.37582	-985.02863	-37.48005	188.24831	-950.07520	-147.71597	45.10010	-1194.17188	-376.76965	649.84052	-1154.34204	-398.71402	470.42563	-1157.90942	-364.18436	283.45703	-1106.00110	-351.14346	67.49354	-1056.96460	-305.61319	34.78880	-1077.57959	-493.58023	31.95380	-1026.35999	-317.17044	1678.62207																		 
224	2.230	-982.26379	-415.57129	1628.43140	-1115.11633	-406.25714	1633.32080	-979.80957	-295.86844	1566.00085	-1110.62012	-291.12540	1571.15125	-1041.58118	-275.38269	1416.36304	-1043.70129	-247.44618	1102.87683	-1042.60229	-398.58389	1341.91699	-1033.05396	-442.86313	1177.18237	-1137.76904	-226.40080	1239.19348	-886.67395	-357.58044	1377.88281	-815.86768	-362.00287	1180.58472	-804.92328	-378.28705	1058.14172	-807.64856	-418.73123	934.36755	-840.08966	-451.76709	820.64703	-788.87128	-428.66226	821.63922	-801.05603	-452.21091	740.42609	-1202.88928	-354.69867	1362.16296	-1274.68250	-358.28625	1139.27893	-1288.09998	-377.21072	1027.92603	-1287.49329	-403.76746	893.57361	-1250.63818	-441.88821	802.08698	-1293.86511	-410.35675	793.42725	-1282.19641	-438.77277	724.65710	-915.53363	-406.51242	938.10162	-1153.98450	-426.43402	943.99127	-978.31812	-249.22353	958.79626	-1126.43188	-262.76303	973.41071	-858.35779	-363.42862	635.79797	-870.02057	-386.60266	457.13144	-885.99957	-237.17915	328.52777	-939.05884	-95.57507	181.82910	-985.28186	-50.34255	187.51122	-947.29462	-163.10283	46.78996	-1194.37134	-381.69366	649.70789	-1154.42737	-402.53885	470.24649	-1157.95886	-366.43005	283.37054	-1106.02917	-351.33005	67.46866	-1056.98792	-305.56802	34.86831	-1077.52954	-493.59592	31.91479	-1026.71094	-322.53329	1678.18115																		 
